<svg width="26" height="26" viewBox="0 0 26 26" fill="none" xmlns="http://www.w3.org/2000/svg">
<path d="M13 0.200012C16.4778 0.200012 16.9117 0.212812 18.2762 0.276812C19.6394 0.340812 20.5674 0.554572 21.384 0.872012C22.2288 1.19713 22.9405 1.63745 23.6522 2.34785C24.303 2.98772 24.8067 3.76173 25.128 4.61601C25.4442 5.43137 25.6592 6.36065 25.7232 7.72385C25.7834 9.08833 25.8 9.52225 25.8 13C25.8 16.4778 25.7872 16.9117 25.7232 18.2762C25.6592 19.6394 25.4442 20.5674 25.128 21.384C24.8076 22.2388 24.3038 23.013 23.6522 23.6522C23.0121 24.3028 22.2382 24.8064 21.384 25.128C20.5687 25.4442 19.6394 25.6592 18.2762 25.7232C16.9117 25.7834 16.4778 25.8 13 25.8C9.52225 25.8 9.08833 25.7872 7.72385 25.7232C6.36065 25.6592 5.43265 25.4442 4.61601 25.128C3.76139 24.8073 2.98725 24.3036 2.34785 23.6522C1.69685 23.0124 1.1932 22.2384 0.872012 21.384C0.554572 20.5687 0.340812 19.6394 0.276812 18.2762C0.216652 16.9117 0.200012 16.4778 0.200012 13C0.200012 9.52225 0.212812 9.08833 0.276812 7.72385C0.340812 6.35937 0.554572 5.43265 0.872012 4.61601C1.19231 3.7612 1.69608 2.98698 2.34785 2.34785C2.98743 1.69663 3.76152 1.19295 4.61601 0.872012C5.43265 0.554572 6.35937 0.340812 7.72385 0.276812C9.08833 0.216652 9.52225 0.200012 13 0.200012ZM13 6.60001C11.3026 6.60001 9.67476 7.2743 8.47453 8.47453C7.2743 9.67476 6.60001 11.3026 6.60001 13C6.60001 14.6974 7.2743 16.3253 8.47453 17.5255C9.67476 18.7257 11.3026 19.4 13 19.4C14.6974 19.4 16.3253 18.7257 17.5255 17.5255C18.7257 16.3253 19.4 14.6974 19.4 13C19.4 11.3026 18.7257 9.67476 17.5255 8.47453C16.3253 7.2743 14.6974 6.60001 13 6.60001ZM21.32 6.28001C21.32 5.85567 21.1514 5.4487 20.8514 5.14864C20.5513 4.84858 20.1444 4.68001 19.72 4.68001C19.2957 4.68001 18.8887 4.84858 18.5886 5.14864C18.2886 5.4487 18.12 5.85567 18.12 6.28001C18.12 6.70436 18.2886 7.11132 18.5886 7.41138C18.8887 7.71144 19.2957 7.88001 19.72 7.88001C20.1444 7.88001 20.5513 7.71144 20.8514 7.41138C21.1514 7.11132 21.32 6.70436 21.32 6.28001ZM13 9.16001C14.0184 9.16001 14.9952 9.56458 15.7153 10.2847C16.4354 11.0049 16.84 11.9816 16.84 13C16.84 14.0184 16.4354 14.9952 15.7153 15.7153C14.9952 16.4354 14.0184 16.84 13 16.84C11.9816 16.84 11.0049 16.4354 10.2847 15.7153C9.56458 14.9952 9.16001 14.0184 9.16001 13C9.16001 11.9816 9.56458 11.0049 10.2847 10.2847C11.0049 9.56458 11.9816 9.16001 13 9.16001Z" fill="white"/>
</svg>
