<svg width="30" height="25" viewBox="0 0 30 25" fill="none" xmlns="http://www.w3.org/2000/svg">
<path d="M13.8004 13.7746L6.81171 23.5341C6.45412 24.0333 5.85172 24.2961 5.24213 24.2205C4.54854 24.1341 3.59335 23.8737 2.60816 23.1657C1.62297 22.4577 1.07098 21.6345 0.767383 21.0033C0.636076 20.7314 0.58038 20.4292 0.606139 20.1283C0.631898 19.8274 0.738162 19.539 0.913782 19.2934L7.9025 9.53389C8.23513 9.06914 8.67146 8.68828 9.17688 8.4215L10.5521 7.69671C10.8281 7.55151 11.0753 7.35711 11.2817 7.12311C11.9489 6.36592 13.7404 4.38235 16.9168 1.17479L16.972 0.920389C16.9784 0.891785 16.9926 0.865486 17.0129 0.844336C17.0332 0.823186 17.0589 0.807989 17.0872 0.80039L17.2624 0.755991C17.2992 0.746516 17.3316 0.724368 17.3538 0.69343C17.3759 0.662492 17.3865 0.624739 17.3836 0.586793L17.3656 0.370795C17.3636 0.349628 17.366 0.328281 17.3726 0.308064C17.3791 0.287846 17.3898 0.269187 17.4038 0.253229C17.4179 0.237272 17.435 0.224354 17.4542 0.215269C17.4735 0.206184 17.4943 0.201123 17.5156 0.200397C17.7268 0.194397 18.1372 0.255597 18.7168 0.671992C19.2964 1.08839 19.4848 1.45918 19.5472 1.66078C19.5533 1.68119 19.5552 1.70264 19.5527 1.7238C19.5502 1.74497 19.5434 1.7654 19.5327 1.78384C19.5221 1.80228 19.5077 1.81834 19.4906 1.83102C19.4735 1.8437 19.4539 1.85274 19.4332 1.85758L19.2232 1.91038C19.1861 1.91941 19.1534 1.94146 19.1312 1.9725C19.109 2.00355 19.0986 2.04154 19.102 2.07957L19.1164 2.25957C19.1188 2.28878 19.113 2.31807 19.0996 2.34415C19.0863 2.37023 19.0659 2.39206 19.0408 2.40717L18.8176 2.54157C16.8028 6.58432 15.5008 8.92069 14.998 9.79668C14.8432 10.0677 14.7388 10.3645 14.6896 10.6727L14.4436 12.2099C14.3535 12.7747 14.1333 13.3108 13.8004 13.7758V13.7746ZM29.087 19.2922L22.0983 9.53269C21.7657 9.06794 21.3294 8.68708 20.8239 8.4203L19.4488 7.69431C19.1727 7.54905 18.9255 7.35468 18.7192 7.12071C18.4867 6.85708 18.2518 6.59547 18.0148 6.33592C18.0032 6.32385 17.989 6.31464 17.9733 6.30906C17.9575 6.30347 17.9407 6.30165 17.9241 6.30375C17.9076 6.30586 17.8917 6.31181 17.8779 6.32115C17.864 6.33049 17.8525 6.34295 17.8444 6.35752C17.1707 7.65975 16.4726 8.94916 15.7504 10.2251C15.6472 10.405 15.5776 10.6022 15.5452 10.8071C15.4756 11.2455 15.4756 11.6922 15.5452 12.1307L15.5572 12.2075C15.6472 12.7726 15.868 13.309 16.2004 13.7734L23.1891 23.5329C23.5443 24.0285 24.1371 24.2949 24.7419 24.2217C25.7007 24.0993 26.6128 23.7356 27.3927 23.1645C28.178 22.61 28.8107 21.8662 29.2322 21.0021C29.3638 20.7303 29.4196 20.428 29.3939 20.1271C29.3681 19.8261 29.2629 19.5377 29.087 19.2922ZM10.5677 1.85518L10.7777 1.90798C10.8146 1.91724 10.8471 1.93933 10.8693 1.97032C10.8915 2.00131 10.902 2.03918 10.8989 2.07718L10.8845 2.25717C10.8819 2.28639 10.8877 2.31574 10.901 2.34185C10.9144 2.36796 10.9349 2.38976 10.9601 2.40477L11.1833 2.53917C11.5565 3.28676 11.9021 3.97195 12.226 4.60434C12.2572 4.66554 12.3352 4.67634 12.3808 4.62714C12.9052 4.06435 13.5376 3.39716 14.2828 2.62557C14.3128 2.59541 14.3299 2.55481 14.3306 2.5123C14.3312 2.46978 14.3154 2.42866 14.2864 2.39757C13.9084 2.01118 13.5124 1.60678 13.084 1.17359L13.0288 0.919189C13.0227 0.890576 13.0087 0.864263 12.9883 0.843256C12.9679 0.822249 12.942 0.807395 12.9136 0.80039L12.7384 0.755991C12.7016 0.746516 12.6692 0.724368 12.6471 0.69343C12.6249 0.662492 12.6144 0.624739 12.6172 0.586793L12.6352 0.370795C12.6372 0.349821 12.6349 0.328666 12.6285 0.308605C12.6221 0.288543 12.6116 0.269991 12.5978 0.254068C12.584 0.238145 12.5672 0.22518 12.5482 0.215956C12.5293 0.206732 12.5087 0.201439 12.4876 0.200397C12.2776 0.194397 11.8661 0.254397 11.2853 0.671992C10.7057 1.08839 10.5173 1.45918 10.4549 1.66078C10.4487 1.68119 10.4469 1.70264 10.4493 1.7238C10.4518 1.74497 10.4586 1.7654 10.4693 1.78384C10.48 1.80228 10.4943 1.81834 10.5114 1.83102C10.5286 1.8437 10.5481 1.85274 10.5689 1.85758L10.5677 1.85518Z" fill="white"/>
</svg>
