<svg width="28" height="22" viewBox="0 0 28 22" fill="none" xmlns="http://www.w3.org/2000/svg">
<path d="M27.1082 7.0325L20.6215 7.02578C19.5948 4.78488 18.4674 2.59394 17.2393 0.452982C16.9918 0.0216948 16.4038 -0.126823 15.9762 0.122944C15.5414 0.376906 15.3966 0.950837 15.645 1.38464C16.6997 3.2254 17.6805 5.10503 18.5875 7.02355H18.2149L9.41695 7.0146C10.3242 5.1013 11.3035 3.22475 12.355 1.38492C12.6025 0.951956 12.4566 0.375787 12.0238 0.122944C11.5909 -0.129899 11.009 0.0202964 10.7607 0.453822C9.53763 2.58844 8.4124 4.77453 7.38498 7.01208L4.14398 7.00872L0.891767 7.00537C-0.296276 7.00537 -0.298236 8.84827 0.891767 8.84967H1.91489C1.9201 8.8816 1.92693 8.91324 1.93533 8.94448L5.27182 19.3717C5.42992 19.8662 5.58803 20.3604 5.74614 20.8541C5.77119 20.9303 5.80512 21.0032 5.84722 21.0714C5.97966 21.3441 6.23922 21.5503 6.63626 21.5508L19.5264 21.571L21.3637 21.5738C21.8358 21.5738 22.1175 21.2826 22.2144 20.9305C22.2586 20.8612 22.2941 20.7867 22.3199 20.7087L25.7709 10.0935C25.9031 9.68772 26.0351 9.28179 26.1669 8.87568H27.1082C28.2963 8.87792 28.2982 7.03362 27.1082 7.0325ZM18.76 8.86729C18.6224 9.64838 18.4851 10.4297 18.3479 11.2111L17.176 11.2097L14.9324 11.2072C14.9324 10.7038 14.9329 10.2009 14.9338 9.69854C14.9338 9.41996 14.9338 9.14157 14.9338 8.86337L18.76 8.86729ZM22.106 15.4032L19.4777 15.3995C19.615 14.6186 19.7524 13.8378 19.8898 13.0571L21.3864 13.0588L22.8676 13.0605C22.6132 13.8419 22.359 14.6231 22.1052 15.404L22.106 15.4032ZM17.612 15.3976L16.632 15.3962L14.9276 15.3939C14.9276 14.6134 14.9284 13.8328 14.9299 13.0521L18.0228 13.0557C17.8856 13.8364 17.7486 14.617 17.612 15.3976ZM16.8504 19.723L14.924 19.7194C14.924 18.8921 14.9247 18.0648 14.9262 17.2377L17.2872 17.2408L17.0411 18.6406C16.9774 19.0018 16.9139 19.3626 16.8504 19.723ZM11.1482 19.7141C11.0026 18.8868 10.8571 18.0594 10.7117 17.2321H11.368L13.0796 17.2343L13.078 18.9405V19.7152L11.1482 19.7141ZM5.18418 13.0409L8.10991 13.0442L8.52039 15.3841H7.88478L5.93206 15.3814C5.6823 14.601 5.43263 13.8208 5.18306 13.0409H5.18418ZM9.97667 13.0465H10.8259L13.0847 13.0493C13.0847 13.8296 13.0839 14.61 13.0824 15.3906L10.388 15.3875L9.97667 13.0465ZM13.0889 8.86225L13.0864 11.2058L9.65243 11.2019C9.54043 10.5638 9.42843 9.92593 9.31643 9.28823L9.23999 8.85834H9.78599L13.0889 8.86225ZM7.3735 8.85638C7.5107 9.63728 7.648 10.4184 7.78538 11.1997L6.61554 11.1983L4.59198 11.1957L4.18962 9.93712C4.07369 9.57519 3.95787 9.21336 3.84213 8.85162L7.3735 8.85638ZM7.3175 19.7085C7.05262 18.8812 6.78783 18.0539 6.52314 17.2268L8.84547 17.2298C8.95747 17.8638 9.069 18.4978 9.18007 19.1318C9.21404 19.3251 9.24801 19.5184 9.28199 19.7116H8.47447L7.3175 19.7085ZM18.7172 19.7261C18.8624 18.8988 19.0079 18.0715 19.1537 17.2444H20.1161L21.5068 17.2464L21.0339 18.7008C20.9219 19.0431 20.8106 19.3854 20.7001 19.7275L18.7172 19.7261ZM23.466 11.2167L20.2132 11.2139C20.2972 10.7356 20.3812 10.2572 20.4652 9.77853L20.6251 8.87008L23.8557 8.87344H24.2279C23.9738 9.65509 23.7199 10.4362 23.466 11.2167Z" fill="#6345B5"/>
</svg>
