<svg width="56" height="34" viewBox="0 0 56 34" fill="none" xmlns="http://www.w3.org/2000/svg">
<path fill-rule="evenodd" clip-rule="evenodd" d="M28 29.9391C25.0343 32.4714 21.1873 34.0002 16.9836 34.0002C7.60382 34.0002 0 26.389 0 17.0002C0 7.61131 7.60382 0.000152588 16.9836 0.000152588C21.1873 0.000152588 25.0343 1.52888 28 4.06122C30.9657 1.52888 34.8127 0.000152588 39.0164 0.000152588C48.3962 0.000152588 56 7.61131 56 17.0002C56 26.389 48.3962 34.0002 39.0164 34.0002C34.8127 34.0002 30.9657 32.4714 28 29.9391Z" fill="#ED0006"/>
<path fill-rule="evenodd" clip-rule="evenodd" d="M28 29.9391C31.6517 26.821 33.9672 22.1812 33.9672 17.0002C33.9672 11.8191 31.6517 7.17933 28 4.06122C30.9657 1.52888 34.8127 0.000152588 39.0164 0.000152588C48.3962 0.000152588 56 7.61131 56 17.0002C56 26.389 48.3962 34.0002 39.0164 34.0002C34.8127 34.0002 30.9657 32.4714 28 29.9391Z" fill="#F9A000"/>
<path fill-rule="evenodd" clip-rule="evenodd" d="M28.0001 29.939C31.6518 26.8209 33.9672 22.1812 33.9672 17.0001C33.9672 11.8191 31.6518 7.17939 28.0001 4.06128C24.3484 7.17939 22.033 11.8191 22.033 17.0001C22.033 22.1812 24.3484 26.8209 28.0001 29.939Z" fill="#FF5E00"/>
</svg>
