<svg width="60" height="30" viewBox="0 0 60 30" fill="none" xmlns="http://www.w3.org/2000/svg">
<path fill-rule="evenodd" clip-rule="evenodd" d="M16.0006 23.8599H11.1541L7.51989 9.89606C7.3474 9.25372 6.98114 8.68585 6.44238 8.41821C5.09785 7.74562 3.61627 7.21034 2 6.94037V6.40276H9.80725C10.8848 6.40276 11.6929 7.21034 11.8276 8.14824L13.7132 18.2209L18.5573 6.40276H23.2691L16.0006 23.8599ZM25.9629 23.8599H21.3858L25.1547 6.40276H29.7318L25.9629 23.8599ZM35.6534 11.2389C35.7881 10.2987 36.5962 9.76109 37.5391 9.76109C39.0206 9.62611 40.6345 9.89608 41.9814 10.5663L42.7896 6.80773C41.4427 6.27012 39.9611 6.00015 38.6166 6.00015C34.1742 6.00015 30.9416 8.41823 30.9416 11.7742C30.9416 14.3273 33.2314 15.6678 34.8476 16.4754C36.5962 17.2806 37.2697 17.8183 37.135 18.6235C37.135 19.8314 35.7881 20.369 34.4436 20.369C32.8273 20.369 31.211 19.9664 29.7318 19.2938L28.9237 23.0547C30.5399 23.725 32.2885 23.995 33.9048 23.995C38.886 24.1276 41.9814 21.7119 41.9814 18.0859C41.9814 13.5197 35.6534 13.2521 35.6534 11.2389ZM58 23.8599L54.3657 6.40276H50.4621C49.654 6.40276 48.8459 6.94037 48.5765 7.74562L41.8467 23.8599H46.5585L47.499 21.3092H53.2882L53.827 23.8599H58ZM51.1356 11.1039L52.4801 17.6832H48.7112L51.1356 11.1039Z" fill="white"/>
</svg>
